<mxfile host="app.diagrams.net" modified="2023-12-30T16:53:44.181Z" agent="Mozilla/5.0 (Macintosh; Intel Mac OS X 10_15_7) AppleWebKit/537.36 (KHTML, like Gecko) Chrome/120.0.0.0 Safari/537.36" etag="cjipan8KFB30CZ0aXd3w" version="22.1.16" type="device">
  <diagram name="Page-1" id="ghZD5XTV6IsXAwfLiHoJ">
    <mxGraphModel dx="1583" dy="1198" grid="1" gridSize="10" guides="1" tooltips="1" connect="1" arrows="1" fold="1" page="1" pageScale="1" pageWidth="850" pageHeight="1100" math="0" shadow="0">
      <root>
        <mxCell id="0" />
        <mxCell id="1" parent="0" />
        <mxCell id="dHWQA91jIuuRfFpEVWMk-2" value="" style="rounded=0;whiteSpace=wrap;html=1;gradientColor=none;" vertex="1" parent="1">
          <mxGeometry x="140" y="90" width="1450" height="500" as="geometry" />
        </mxCell>
        <mxCell id="dHWQA91jIuuRfFpEVWMk-3" value="&lt;font style=&quot;font-size: 21px;&quot;&gt;Presentation&lt;/font&gt;" style="text;html=1;strokeColor=none;fillColor=none;align=center;verticalAlign=middle;whiteSpace=wrap;rounded=0;" vertex="1" parent="1">
          <mxGeometry x="180" y="90" width="250" height="70" as="geometry" />
        </mxCell>
        <mxCell id="dHWQA91jIuuRfFpEVWMk-4" value="&lt;font style=&quot;font-size: 21px;&quot;&gt;Application&lt;/font&gt;" style="text;html=1;strokeColor=none;fillColor=none;align=center;verticalAlign=middle;whiteSpace=wrap;rounded=0;" vertex="1" parent="1">
          <mxGeometry x="735" y="90" width="250" height="70" as="geometry" />
        </mxCell>
        <mxCell id="dHWQA91jIuuRfFpEVWMk-5" value="&lt;font style=&quot;font-size: 21px;&quot;&gt;Data access&lt;/font&gt;" style="text;html=1;strokeColor=none;fillColor=none;align=center;verticalAlign=middle;whiteSpace=wrap;rounded=0;" vertex="1" parent="1">
          <mxGeometry x="1280" y="90" width="250" height="70" as="geometry" />
        </mxCell>
        <mxCell id="dHWQA91jIuuRfFpEVWMk-8" value="" style="endArrow=none;html=1;rounded=0;dashed=1;entryX=0.25;entryY=0;entryDx=0;entryDy=0;exitX=0.304;exitY=1.006;exitDx=0;exitDy=0;exitPerimeter=0;" edge="1" parent="1" source="dHWQA91jIuuRfFpEVWMk-2">
          <mxGeometry width="50" height="50" relative="1" as="geometry">
            <mxPoint x="580" y="580" as="sourcePoint" />
            <mxPoint x="580" y="90" as="targetPoint" />
          </mxGeometry>
        </mxCell>
        <mxCell id="dHWQA91jIuuRfFpEVWMk-9" value="" style="endArrow=none;html=1;rounded=0;dashed=1;entryX=0.25;entryY=0;entryDx=0;entryDy=0;" edge="1" parent="1">
          <mxGeometry width="50" height="50" relative="1" as="geometry">
            <mxPoint x="1140" y="590" as="sourcePoint" />
            <mxPoint x="1140" y="90" as="targetPoint" />
          </mxGeometry>
        </mxCell>
        <mxCell id="dHWQA91jIuuRfFpEVWMk-10" value="Client" style="swimlane;absoluteArcSize=0;" vertex="1" parent="1">
          <mxGeometry x="190" y="160" width="290" height="380" as="geometry">
            <mxRectangle x="240" y="330" width="100" height="30" as="alternateBounds" />
          </mxGeometry>
        </mxCell>
        <mxCell id="dHWQA91jIuuRfFpEVWMk-11" value="" style="verticalLabelPosition=bottom;aspect=fixed;html=1;shape=mxgraph.salesforce.web;" vertex="1" parent="dHWQA91jIuuRfFpEVWMk-10">
          <mxGeometry x="75" y="134.7" width="140" height="110.6" as="geometry" />
        </mxCell>
        <mxCell id="dHWQA91jIuuRfFpEVWMk-12" value="Server" style="swimlane;absoluteArcSize=0;" vertex="1" parent="1">
          <mxGeometry x="730" y="160" width="290" height="380" as="geometry">
            <mxRectangle x="240" y="330" width="100" height="30" as="alternateBounds" />
          </mxGeometry>
        </mxCell>
        <mxCell id="dHWQA91jIuuRfFpEVWMk-14" value="" style="image;html=1;image=img/lib/clip_art/computers/Server_Tower_128x128.png" vertex="1" parent="dHWQA91jIuuRfFpEVWMk-12">
          <mxGeometry x="85" y="125" width="120" height="130" as="geometry" />
        </mxCell>
        <mxCell id="dHWQA91jIuuRfFpEVWMk-15" value="DBMS" style="swimlane;absoluteArcSize=0;" vertex="1" parent="1">
          <mxGeometry x="1230" y="160" width="290" height="380" as="geometry">
            <mxRectangle x="240" y="330" width="100" height="30" as="alternateBounds" />
          </mxGeometry>
        </mxCell>
        <mxCell id="dHWQA91jIuuRfFpEVWMk-17" value="" style="image;html=1;image=img/lib/clip_art/computers/Database_128x128.png" vertex="1" parent="dHWQA91jIuuRfFpEVWMk-15">
          <mxGeometry x="90" y="125" width="110" height="130" as="geometry" />
        </mxCell>
        <mxCell id="dHWQA91jIuuRfFpEVWMk-21" value="" style="endArrow=classic;startArrow=classic;html=1;rounded=0;exitX=1;exitY=0.5;exitDx=0;exitDy=0;entryX=0;entryY=0.5;entryDx=0;entryDy=0;" edge="1" parent="1" source="dHWQA91jIuuRfFpEVWMk-10" target="dHWQA91jIuuRfFpEVWMk-12">
          <mxGeometry width="50" height="50" relative="1" as="geometry">
            <mxPoint x="900" y="480" as="sourcePoint" />
            <mxPoint x="950" y="430" as="targetPoint" />
          </mxGeometry>
        </mxCell>
        <mxCell id="dHWQA91jIuuRfFpEVWMk-23" value="" style="endArrow=classic;startArrow=classic;html=1;rounded=0;entryX=0;entryY=0.5;entryDx=0;entryDy=0;exitX=1;exitY=0.5;exitDx=0;exitDy=0;" edge="1" parent="1" source="dHWQA91jIuuRfFpEVWMk-12" target="dHWQA91jIuuRfFpEVWMk-15">
          <mxGeometry width="50" height="50" relative="1" as="geometry">
            <mxPoint x="900" y="480" as="sourcePoint" />
            <mxPoint x="950" y="430" as="targetPoint" />
          </mxGeometry>
        </mxCell>
      </root>
    </mxGraphModel>
  </diagram>
</mxfile>
